<?xml version="1.0" standalone="no"?><!DOCTYPE svg PUBLIC "-//W3C//DTD SVG 1.1//EN" "http://www.w3.org/Graphics/SVG/1.1/DTD/svg11.dtd"><svg t="1558171992979" class="icon" style="" viewBox="0 0 1024 1024" version="1.1" xmlns="http://www.w3.org/2000/svg" p-id="3100" xmlns:xlink="http://www.w3.org/1999/xlink" width="16" height="16"><defs><style type="text/css"></style></defs><path d="M127.905952 834.398237c-42.886113 0-76.743571-33.857458-76.743571-75.238795V188.849375h844.931667c42.133725 0 76.743571 33.857458 76.743571 75.238795v492.814108c0 13.542983 11.285819 24.828802 25.581191 24.828802s25.58119-11.285819 25.58119-24.828802V264.08817c0-69.219691-57.181484-125.648788-127.905952-125.648787H0V758.407054c0 69.219691 57.181484 125.648788 127.905952 125.648787h783.235855c14.295371 0 25.58119-11.285819 25.581191-24.828802 0-13.542983-11.285819-24.828802-25.581191-24.828802H127.905952z" p-id="3101" fill="#ffffff"></path><path d="M564.290963 682.415871c19.562087 0 34.609846 15.800147 34.609845 34.609845 0 19.562087-15.800147 34.609846-34.609845 34.609846-19.562087 0-34.609846-15.800147-34.609846-34.609846s15.047759-34.609846 34.609846-34.609845z" p-id="3102" fill="#ffffff"></path><path d="M457.451874 717.778104m-34.609846 0a34.609846 34.609846 0 1 0 69.219691 0 34.609846 34.609846 0 1 0-69.219691 0Z" p-id="3103" fill="#ffffff"></path><path d="M351.365173 717.778104m-34.609846 0a34.609846 34.609846 0 1 0 69.219691 0 34.609846 34.609846 0 1 0-69.219691 0Z" p-id="3104" fill="#ffffff"></path><path d="M672.634827 682.415871c19.562087 0 34.609846 15.800147 34.609846 34.609845 0 19.562087-15.800147 34.609846-34.609846 34.609846-19.562087 0-34.609846-15.800147-34.609845-34.609846-0.752388-18.809699 15.047759-34.609846 34.609845-34.609845z" p-id="3105" fill="#ffffff"></path></svg>