<?xml version="1.0" standalone="no"?><!DOCTYPE svg PUBLIC "-//W3C//DTD SVG 1.1//EN" "http://www.w3.org/Graphics/SVG/1.1/DTD/svg11.dtd"><svg t="1552279637608" class="icon" style="" viewBox="0 0 1024 1024" version="1.1" xmlns="http://www.w3.org/2000/svg" p-id="9339" xmlns:xlink="http://www.w3.org/1999/xlink" width="128" height="128"><defs><style type="text/css"></style></defs><path d="M508.886591 263.614933c-153.025209 0-277.978059 126.127605-278.471292 281.19431 0.243547 14.467503 11.746532 25.839505 25.720801 25.839505 12.921287 0 23.861454-9.642614 25.406646-22.440082 1.549286-12.675694 12.369725-22.193465 25.166169-22.193465 12.740162 0 23.555485 9.518794 25.103748 22.193465 1.604544 12.797467 12.550851 22.440082 25.472138 22.440082 12.491499 0 23.125697-8.839319 25.287943-21.081131 2.165316-12.114922 12.674671-20.897959 24.919553-20.897959 12.238742 0 22.751167 8.783037 24.913413 20.897959 2.163269 12.241812 12.797467 21.081131 25.287943 21.081131 13.908778 0 25.472138-11.372002 25.595958-25.221428 0.249687-13.849426 11.497868-24.979928 25.348318-24.979928 13.849426 0 25.102724 11.070126 25.352411 24.920576 0 0.309038 0 0.552585 0 0.801249l0.060375 0c0 0.121773 0 0.245593-0.060375 0.305969 0.865717 13.418614 12.114922 24.174586 25.720801 24.174586 12.735046 0 23.61893-9.518794 25.348318-22.131043 1.728364-12.735046 13.291724-22.502503 25.472138-21.947871 12.736069 0.184195 23.433712 9.827833 24.855084 22.505573 1.423419 12.983709 12.368702 22.750143 25.472138 22.750143 12.552897 0 23.432689-9.274224 25.352411-21.638833 1.979074-12.366655 12.552897-21.455661 25.038256-21.455661 12.488429 0 23.125697 9.089006 25.042349 21.455661 1.918699 12.304234 12.798491 21.638833 25.348318 21.638833 14.159488 0 25.659403-11.501962 25.659403-25.657356 0-1.115404-0.062422-2.227738-0.184195-3.402493C783.649422 387.517871 658.943189 263.614933 508.886591 263.614933z" p-id="9340"></path><path d="M508.886591 1.340531C229.179145 1.340531 2.393002 228.126674 2.393002 507.835144s226.786143 506.494613 506.493589 506.494613c279.70847 0 506.494613-226.786143 506.494613-506.494613S788.595061 1.340531 508.886591 1.340531zM761.639129 622.462834c-19.290345 0-36.97103-7.049556-50.390667-18.796088-27.267017 23.808242-74.747401 23.369244-101.706403-0.98749-20.031219 17.311271-50.263777 21.455661-75.55172 13.167904l0.060375 154.013723c0 55.645344-45.322232 100.967576-101.026928 100.967576-55.706743 0-100.964506-45.322232-100.964506-100.967576L382.635165 769.860882c0 27.765367 22.630417 50.327222 50.388621 50.327222 27.761274 0 50.327222-22.561855 50.327222-50.327222l-0.060375-154.073074c-25.411763 8.347109-55.894008 4.14132-75.798337-13.232372-27.081799 23.679305-73.825402 23.37129-100.783381-0.433882-13.602809 11.933797-31.344892 19.167548-50.572816 19.167548-41.549302 0-75.738985-33.758871-76.296687-75.18333 0.49221-175.528736 134.474714-318.600245 303.450197-331.829548l0-44.147476 50.634214 0 0 44.147476c166.009941 13.043061 299.927977 153.393599 303.516712 324.472999 0.24764 0.367367 0.491187 3.832282 0.491187 7.41897C837.933769 588.211752 803.681664 622.462834 761.639129 622.462834z" p-id="9341"></path></svg>