<?xml version="1.0" standalone="no"?><!DOCTYPE svg PUBLIC "-//W3C//DTD SVG 1.1//EN" "http://www.w3.org/Graphics/SVG/1.1/DTD/svg11.dtd"><svg t="1552278341369" class="icon" style="" viewBox="0 0 1024 1024" version="1.1" xmlns="http://www.w3.org/2000/svg" p-id="12006" xmlns:xlink="http://www.w3.org/1999/xlink" width="128" height="128"><defs><style type="text/css"></style></defs><path d="M512 1024c-281.6 0-512-230.4-512-512s230.4-512 512-512 512 230.4 512 512S793.6 1024 512 1024zM512 57.6C262.4 57.6 57.6 262.4 57.6 512s204.8 454.4 454.4 454.4 454.4-204.8 454.4-454.4S761.6 57.6 512 57.6z" p-id="12007"></path><path d="M89.6 518.4l0-12.8c0-70.4 57.6-128 128-128l345.6 0c70.4 0 128 57.6 128 128l0 12.8c0 0 0 6.4 0 6.4L588.8 524.8c0 0 0-6.4 0-6.4l0-12.8c0-19.2-12.8-32-32-32L550.4 473.6 467.2 473.6 345.6 473.6l-128 0c-19.2 0-32 12.8-32 32l0 12.8c0 19.2 12.8 32 32 32l102.4 0C320 588.8 339.2 620.8 371.2 646.4L217.6 646.4C147.2 646.4 89.6 588.8 89.6 518.4z" p-id="12008"></path><path d="M339.2 518.4 339.2 505.6c0 0 0-6.4 0-6.4l96 0c0 0 0 6.4 0 6.4l0 12.8c0 19.2 12.8 32 32 32l38.4 0 57.6 0 121.6 0 128 0c19.2 0 32-12.8 32-32l0-12.8c0-19.2-12.8-32-32-32L704 473.6c0-38.4-19.2-70.4-44.8-96l153.6 0c70.4 0 128 57.6 128 128l0 12.8c0 70.4-57.6 128-128 128l-345.6 0C396.8 646.4 339.2 588.8 339.2 518.4z" p-id="12009"></path></svg>