<?xml version="1.0" standalone="no"?><!DOCTYPE svg PUBLIC "-//W3C//DTD SVG 1.1//EN" "http://www.w3.org/Graphics/SVG/1.1/DTD/svg11.dtd"><svg t="1552278169520" class="icon" style="" viewBox="0 0 1024 1024" version="1.1" xmlns="http://www.w3.org/2000/svg" p-id="7860" xmlns:xlink="http://www.w3.org/1999/xlink" width="128" height="128"><defs><style type="text/css"></style></defs><path d="M785.6 714.514286L513.714286 445.828571l-32.228572 32.342858 271.885715 268.685714c7.542857 7.542857 7.542857 22.171429 0 29.828571-7.542857 7.542857-19.885714 9.828571-27.542858 2.285715L493.6 544.342857l-59.542857-59.542857c7.314286-4.914286 14.285714-10.628571 20.685714-17.142857 24.114286-24.571429 37.257143-57.028571 37.142857-91.428572-0.114286-34.4-13.6-66.857143-38.057143-91.2-20.228571-20.228571-45.942857-33.028571-74.4-36.8-27.428571-3.657143-55.771429 1.6-80 14.857143-6.514286 3.542857-10.971429 10.057143-12 17.485715-1.028571 7.314286 1.485714 14.857143 6.742858 20.114285l44.114285 44.114286-16 16-41.371428-41.371429c-5.6-5.6-13.6-8-21.371429-6.514285-7.771429 1.6-14.285714 6.857143-17.257143 14.171428-9.828571 23.771429-12.457143 49.6-7.428571 74.857143 5.142857 25.942857 17.828571 49.485714 36.914286 67.885714 25.142857 24.457143 57.828571 36.571429 90.4 36.571429 8.8 0 17.714286-0.914286 26.4-2.742857l71.428571 71.428571 233.6 235.885715c12.685714 12.685714 29.371429 19.085714 46.057143 19.085714 16.685714 0 33.371429-8.685714 46.057143-21.371429 25.371429-25.142857 25.371429-68.8-0.114286-94.171428zM303.428571 437.142857c-15.657143-15.2-24.342857-35.2-25.485714-55.885714l27.428572 27.428571c9.257143 9.257143 24.342857 9.257143 33.6 0l47.2-47.2c9.257143-9.257143 9.257143-24.342857 0-33.6l-34.514286-34.514285c25.142857-3.085714 51.2 5.257143 69.828571 23.885714 32.457143 32.457143 32.685714 85.6 0.571429 118.285714-32.228571 33.142857-85.485714 33.714286-118.628572 1.6zM347.542857 51.771429h338.285714v45.714285h-338.285714z" p-id="7861"></path><path d="M931.428571 1023.2H101.714286c-13.257143 0-24-10.742857-24-24v-923.428571c0-13.257143 10.742857-24 24-24h144.228571v45.714285H123.428571v880h786.285715v-720h45.714285v741.714286c0 13.257143-10.742857 24-24 24zM955.428571 180.571429h-45.714285V97.485714H786.514286v-45.714285H931.428571c13.257143 0 24 10.742857 24 24V180.571429z" p-id="7862"></path><path d="M297.257143 146.628571c-12.571429 0-22.857143-10.285714-22.857143-22.857142V23.314286c0-12.571429 10.285714-22.857143 22.857143-22.857143s22.857143 10.285714 22.857143 22.857143v100.457143c0 12.571429-10.171429 22.857143-22.857143 22.857142zM736.114286 146.628571c-12.571429 0-22.857143-10.285714-22.857143-22.857142V23.314286c0-12.571429 10.285714-22.857143 22.857143-22.857143s22.857143 10.285714 22.857143 22.857143v100.457143c0 12.571429-10.285714 22.857143-22.857143 22.857142z" p-id="7863"></path></svg>