<?xml version="1.0" standalone="no"?><!DOCTYPE svg PUBLIC "-//W3C//DTD SVG 1.1//EN" "http://www.w3.org/Graphics/SVG/1.1/DTD/svg11.dtd"><svg t="1552280770370" class="icon" style="" viewBox="0 0 1024 1024" version="1.1" xmlns="http://www.w3.org/2000/svg" p-id="18375" xmlns:xlink="http://www.w3.org/1999/xlink" width="128" height="128"><defs><style type="text/css"></style></defs><path d="M952.9344 472.7808l-65.8432-63.5904-41.6768-40.2432L716.4928 244.4288l-33.3824-32.256-37.7856-36.5568-70.144-67.7888c-34.816-33.5872-96.256-29.0816-136.8064 10.1376l-59.5968 57.5488-37.7856 36.5568-33.3824 32.256L178.5856 368.9472l-27.9552 27.0336-1.2288 0.1024 0 1.1264-12.4928 11.9808-65.8432 63.5904c-4.4032 3.7888-7.0656 9.4208-7.0656 15.6672 0 11.264 9.1136 20.3776 20.48 20.3776 6.2464 0 11.8784-2.7648 15.5648-7.168l36.864-35.6352 12.4928-11.9808L149.4016 847.872c0 50.0736 45.1584 90.7264 100.7616 90.7264l107.8272 0 25.2928 0 17.408 0 39.5264 0 151.9616 0 21.8112 0 14.7456 0 12.288 0 15.6672 0 117.3504 0c55.5008 0 100.7616-40.7552 100.7616-90.7264L874.8032 454.0416l12.4928 11.9808 36.864 35.6352c3.7888 4.4032 9.3184 7.168 15.5648 7.168 11.264 0 20.48-9.1136 20.48-20.3776C960 482.2016 957.3376 476.4672 952.9344 472.7808zM613.888 902.3488 403.5584 902.3488l-2.9696 0L400.5888 657.3056c0-58.368 47.8208-105.8816 106.7008-105.8816s106.7008 47.5136 106.7008 105.8816L613.9904 902.3488zM834.3552 746.5984 834.3552 847.872c0 30.0032-27.136 54.4768-60.416 54.4768l-96.4608 0-20.8896 0L656.5888 657.3056c0-81.7152-66.9696-148.1728-149.2992-148.1728s-149.2992 66.4576-149.2992 148.1728l0 245.0432-11.264 0-96.4608 0c-33.3824 0-60.416-24.4736-60.416-54.4768L189.8496 450.1504l0-34.9184 283.8528-273.6128c24.3712-23.552 51.3024-25.4976 72.192-5.3248l40.6528 39.3216 37.7856 36.5568 33.3824 32.256 176.7424 170.7008L834.4576 746.5984z" p-id="18376"></path></svg>