<?xml version="1.0" standalone="no"?><!DOCTYPE svg PUBLIC "-//W3C//DTD SVG 1.1//EN" "http://www.w3.org/Graphics/SVG/1.1/DTD/svg11.dtd"><svg t="1558171814012" class="icon" style="" viewBox="0 0 1024 1024" version="1.1" xmlns="http://www.w3.org/2000/svg" p-id="2554" xmlns:xlink="http://www.w3.org/1999/xlink" width="16" height="16"><defs><style type="text/css"></style></defs><path d="M234.650763 207.258391c-15.296381 0-27.718295 12.367679-27.718295 27.66406s12.421914 27.66406 27.718295 27.66406L789.402449 262.58651c15.296381 0 27.66406-12.367679 27.66406-27.66406s-12.367679-27.66406-27.66406-27.66406L234.650763 207.258391z" p-id="2555" fill=""></path><path d="M957.124382 411.70269c0-6.834662 0-8.67866-98.94143-270.78524-9.438976-25.060769-36.83186-43.937698-63.790862-43.937698L229.605863 96.979752c-26.904767 0-54.351885 18.876929-63.681368 43.883463C66.874595 403.02403 66.874595 404.868027 66.874595 411.70269c0 49.904597 22.61916 94.275153 57.715493 124.923174-0.10847 0.921999-0.542352 1.790786-0.542352 2.765997L124.047736 844.026022c0 45.780673 37.265742 82.994226 83.101673 82.994226l609.700159 0c45.890166 0 83.155908-37.21253 83.155908-82.994226L900.005476 539.392884c0-0.975211-0.488117-1.843998-0.596588-2.765997C934.558433 505.978866 957.124382 461.607286 957.124382 411.70269zM844.623122 844.026022c0 15.242146-12.476149 27.665083-27.773554 27.665083L207.149409 871.691105c-15.296381 0-27.773554-12.423961-27.773554-27.665083L179.375855 568.630788c17.683754 6.238075 36.343743 10.251481 56.142671 10.251481 85.108377 0 139.297556-58.690704 137.724735-61.132312 2.224668 2.440585 55.003731 59.288315 139.461285 60.916395 83.046415-1.62808 135.880737-58.475809 134.252657-60.97063 2.278903 2.494821 56.468083 61.186548 141.577482 61.186548 19.744693 0 38.458917-4.013407 56.088436-10.251481L844.623122 844.026022zM788.534685 523.337209c-59.884902 0-100.134605-42.636053-100.460016-43.015699-10.144034-11.174504-24.409946-17.575284-39.163975-17.575284-14.754029 0-29.074176 6.40078-39.10974 17.46579-0.379647 0.379647-39.597857 41.768289-97.367585 42.907229-58.637492-1.13894-97.800443-42.527582-98.072643-42.797735-20.341281-22.349007-58.149375-22.294772-78.383208-0.054235-0.379647 0.433882-40.573067 43.069935-100.458993 43.069935-60.97063 0-110.819968-47.897893-112.990401-107.565854 8.67866-24.898063 60.645219-163.219385 95.360881-255.326153 1.300622-3.471055 7.919367-7.919367 11.715833-7.919367l564.78725 0c3.851725 0 10.41521 4.448312 11.715833 7.973602 34.770921 92.051509 86.736457 230.372831 95.360881 255.271918C899.300418 475.439316 849.504292 523.337209 788.534685 523.337209z" p-id="2556" fill=""></path></svg>