<?xml version="1.0" standalone="no"?><!DOCTYPE svg PUBLIC "-//W3C//DTD SVG 1.1//EN" "http://www.w3.org/Graphics/SVG/1.1/DTD/svg11.dtd"><svg class="icon" width="200px" height="200.00px" viewBox="0 0 1024 1024" version="1.1" xmlns="http://www.w3.org/2000/svg"><path fill="#ffffff" d="M942.242 569.382c-6.891-0.651-13.876-0.212-20.81-0.489-9.279-0.371-17.897 0.935-24.501 9.153-0.736-2.097-1.277-3.579-1.776-5.074-10.96-32.893-21.896-65.795-32.878-98.681-7.355-22.024-28.253-37.094-51.359-37.095-90.162-0.004-180.326-0.006-270.488 0.002-23.565 0.002-44.285 14.808-51.757 37.06-7.769 23.131-15.446 46.294-23.168 69.439-4.075 12.213-8.161 24.423-12.414 37.148-1.157-1.443-1.943-2.463-2.767-3.45-3.651-4.373-8.259-7.668-13.901-7.912-10.517-0.457-21.136-0.841-31.589 0.105-8.905 0.805-15.096 6.623-17.704 15.327-2.636 8.802 0.013 16.343 6.841 22.36 4.273 3.766 9.387 5.496 15.082 5.496 7.572-0.001 15.143 0 23.107 0 0 73.433 0 146.316 0 219.517 14.692 1.556 28.858 0.993 42.821-2.725 21.298-5.672 31.82-19.621 31.499-43.994-0.082-6.33-2.46-12.629-3.741-18.744 113.913 0 228.532 0 342.305 0-1.315 6.31-3.582 12.489-3.709 18.711-0.316 15.475 3.45 29.793 17.931 38.221 17.413 10.135 36.646 10.009 56.549 8.678 0-73.413 0-146.37 0-219.721 8.564 0 16.567 0.241 24.549-0.056 12.018-0.447 21.49-10.525 21.289-22.221-0.178-10.55-8.599-20.035-19.409-21.055ZM512.956 577.596c6.615-23.755 13.242-47.505 19.875-71.254 5.378-19.257 21.294-31.333 41.357-31.336 69.43-0.009 138.861-0.008 208.291-0.001 20.085 0.003 36.047 11.892 41.565 31.133 7.826 27.289 15.531 54.612 23.283 81.923 0.214 0.75 0.378 1.513 0.683 2.752-113.02 0-225.551 0-338.611 0 1.228-4.577 2.356-8.907 3.556-13.218ZM512.897 700.695c-19.103 0.056-34.597-14.75-34.576-33.045 0.021-18.178 15.248-32.697 34.353-32.753 19.222-0.054 34.685 14.646 34.629 32.925-0.055 18.041-15.519 32.816-34.406 32.873ZM835.037 700.696c-19.077-0.012-34.539-14.892-34.476-33.18 0.063-18.091 15.442-32.624 34.516-32.617 19.263 0.008 34.533 14.653 34.467 33.056-0.066 18.01-15.601 32.751-34.507 32.739ZM386.148 526.679c0.294-23.714 5.59-45.852 15.275-67.002 0.503-1.101-0.003-2.708-0.173-4.062-0.576-4.562-2.236-9.257-1.633-13.646 1.751-12.753 11.929-21.599 25.272-22.684 2.783-0.227 4.568-1.245 6.425-3.189 20.853-21.842 45.828-36.836 75.021-44.691 4.48-1.205 9.03-2.154 14.2-3.376-7.49-4.483-15.116-2.432-22.406-2.929-7.847-0.534-15.085 0.766-20.542 7.87-0.758-2.146-1.215-3.379-1.627-4.626-8.835-26.702-17.662-53.406-26.496-80.107-6.174-18.663-22.712-30.76-42.308-30.768-73.184-0.032-146.369-0.037-219.552 0.003-19.207 0.01-35.802 12.049-41.885 30.2-4.024 12.008-7.983 24.039-11.964 36.061-5.611 16.947-11.216 33.897-17.056 51.546-4.302-6.742-9.834-10.023-17.048-10.147-6.141-0.106-12.287-0.092-18.428 0.006-5.28 0.084-10.005 1.831-13.667 5.716-5.01 5.315-6.628 11.579-3.893 18.466 2.95 7.432 8.782 11.317 16.677 11.68 6.362 0.292 12.747 0.06 19.565 0.06 0 60.07 0 119.693 0 179.553 11.929 1.379 23.249 0.669 34.501-2.169 14.912-3.763 23.286-13.322 25.545-28.348 1.193-7.937 0.186-15.647-3.905-23.414 77.129-0.001 153.567-0.001 230.105-0.001ZM163.524 379.174c5.918-21.465 11.816-42.937 17.799-64.382 4.753-17.037 17.287-26.467 34.995-26.468 56.096-0.003 112.192-0.007 168.288 0.003 15.826 0.003 29.081 9.688 33.458 24.846 6.547 22.673 12.846 45.415 19.238 68.132 0.104 0.366 0.068 0.772 0.137 1.691-91.604 0-182.926 0-274.713 0 0.282-1.373 0.466-2.618 0.798-3.821ZM137.216 446.415c-0.271-14.758 12.267-27.151 27.672-27.352 15.517-0.203 28.105 11.565 28.378 26.523 0.275 15.036-12.198 27.261-27.95 27.401-15.032 0.132-27.832-11.971-28.101-26.572ZM591.522 356.85c7.254-0.506 12.328-4.468 15.462-11.054 15.919-33.463 31.882-66.907 47.826-100.359 4.588-9.627 9.341-19.18 13.693-28.912 5.049-11.29-1.54-23.128-13.657-24.834-3.554-0.5-7.171-0.552-10.485-0.789-5.094 0.364-9.949 0.332-14.661 1.134-7.86 1.34-15.68 3.006-23.409 4.959-3.196 0.808-6.014 2.606-6.786 6.548-4.764 24.335-9.594 48.658-14.522 72.96-3.946 19.458-8.018 38.891-12.143 58.312-1.06 4.992-0.345 9.564 2.386 13.784 3.805 5.88 9.387 8.734 16.296 8.252ZM626.668 385.188c-4.268 5.954-4.911 12.342-1.651 18.869 3.279 6.564 8.89 9.67 15.219 9.892 6.504-0.075 10.888-2.526 14.669-6.447 24.185-25.083 48.404-50.132 72.607-75.2 0.926-0.959 1.849-1.934 2.665-2.984 8.265-10.61 2.22-26.263-11.025-28.575-6.938-1.211-12.47 1.288-17.242 6.241-24.269 25.188-48.591 50.323-72.886 75.486-0.833 0.862-1.662 1.747-2.358 2.719ZM494.387 296.51c4.831 18.156 9.645 36.317 14.509 54.463 2.383 8.89 8.995 14.259 17.453 14.307 12.027 0.066 20.644-10.738 17.519-22.652-9.127-34.8-18.498-69.535-27.818-104.284-1.47-5.478-4.906-9.489-10.129-11.675-6.56-2.743-12.911-2.005-18.443 2.5-5.645 4.597-7.99 10.773-6.188 17.876 4.195 16.532 8.708 32.982 13.095 49.464Z" /></svg>