<?xml version="1.0" standalone="no"?><!DOCTYPE svg PUBLIC "-//W3C//DTD SVG 1.1//EN" "http://www.w3.org/Graphics/SVG/1.1/DTD/svg11.dtd"><svg t="1550053785633" class="icon" style="" viewBox="0 0 1024 1024" version="1.1" xmlns="http://www.w3.org/2000/svg" p-id="21632" xmlns:xlink="http://www.w3.org/1999/xlink" width="200" height="200"><defs><style type="text/css"></style></defs><path d="M501.183099 212.732394l104.56338 403.830986 187.492958-306.478873-50.478873 306.478873 201.915493-176.676056-61.295775 176.676056-54.084507 270.422535L173.070423 886.985915l-57.690141-270.422535-54.084507-176.676056 165.859155 176.676056L209.126761 310.084507l183.887324 306.478873L501.183099 212.732394c-21.633803 0-39.661972-18.028169-39.661972-39.661972 0-21.633803 18.028169-39.661972 39.661972-39.661972 21.633803 0 39.661972 18.028169 39.661972 39.661972C540.84507 194.704225 522.816901 212.732394 501.183099 212.732394L501.183099 212.732394zM194.704225 771.605634l7.211268 39.661972 598.535211 0 7.211268-39.661972L194.704225 771.605634 194.704225 771.605634zM50.478873 443.492958c14.422535 0 28.84507-14.422535 28.84507-28.84507 0-14.422535-14.422535-28.84507-28.84507-28.84507-14.422535 0-28.84507 14.422535-28.84507 28.84507C21.633803 429.070423 32.450704 443.492958 50.478873 443.492958L50.478873 443.492958zM201.915493 310.084507c14.422535 0 28.84507-14.422535 28.84507-28.84507C230.760563 263.211268 219.943662 252.394366 201.915493 252.394366 187.492958 252.394366 173.070423 263.211268 173.070423 281.239437 173.070423 295.661972 187.492958 310.084507 201.915493 310.084507L201.915493 310.084507zM973.521127 443.492958c14.422535 0 28.84507-14.422535 28.84507-28.84507 0-14.422535-14.422535-28.84507-28.84507-28.84507-14.422535 0-28.84507 14.422535-28.84507 28.84507C944.676056 429.070423 955.492958 443.492958 973.521127 443.492958L973.521127 443.492958zM800.450704 310.084507c14.422535 0 28.84507-14.422535 28.84507-28.84507C829.295775 263.211268 814.873239 252.394366 800.450704 252.394366c-14.422535 0-28.84507 14.422535-28.84507 28.84507C771.605634 295.661972 782.422535 310.084507 800.450704 310.084507L800.450704 310.084507zM800.450704 310.084507" p-id="21633"></path></svg>