<?xml version="1.0" standalone="no"?><!DOCTYPE svg PUBLIC "-//W3C//DTD SVG 1.1//EN" "http://www.w3.org/Graphics/SVG/1.1/DTD/svg11.dtd"><svg t="1550053716404" class="icon" style="" viewBox="0 0 1024 1024" version="1.1" xmlns="http://www.w3.org/2000/svg" p-id="20113" xmlns:xlink="http://www.w3.org/1999/xlink" width="200" height="200"><defs><style type="text/css"></style></defs><path d="M511.8 395.3c-73.4 0-133-59.7-133-133.1S438.4 129 511.8 129s133 59.7 133 133.1-59.6 133.2-133 133.2z m0-216.3c-45.8 0-83 37.3-83 83.1s37.3 83.1 83 83.1 83-37.3 83-83.1-37.2-83.1-83-83.1z" fill="" p-id="20114"></path><path d="M374.9 463.8l-39.1-31.2c44.3-55.4 108.4-87.2 176-87.2s131.7 31.8 176 87.2l-39.1 31.2c-34.7-43.5-84.6-68.4-136.9-68.4-52.3 0-102.2 24.9-136.9 68.4z" fill="" p-id="20115"></path><path d="M361.3 692.3c-73.4 0-133-59.7-133-133.1 0-73.4 59.7-133.1 133-133.1s133 59.7 133 133.1c0 73.4-59.6 133.1-133 133.1z m0-216.3c-45.8 0-83 37.3-83 83.1s37.3 83.1 83 83.1 83-37.3 83-83.1-37.2-83.1-83-83.1z" fill="" p-id="20116"></path><path d="M178.5 895h-50c0-67.1 23.9-130.2 67.4-177.8 44-48.3 102.8-74.8 165.4-74.8s121.3 26.6 165.4 74.8l-36.9 33.7c-34.4-37.7-80.1-58.5-128.5-58.5-100.8 0-182.8 90.9-182.8 202.6z" fill="" p-id="20117"></path><path d="M662.3 692.3c-73.4 0-133-59.7-133-133.1 0-73.4 59.7-133.1 133-133.1 73.4 0 133 59.7 133 133.1 0 73.4-59.6 133.1-133 133.1z m0-216.3c-45.8 0-83 37.3-83 83.1s37.3 83.1 83 83.1c45.8 0 83-37.3 83-83.1s-37.2-83.1-83-83.1z" fill="" p-id="20118"></path><path d="M895.1 895h-50c0-111.7-82-202.7-182.8-202.7s-182.8 91-182.8 202.7h-50c0-67.1 23.9-130.2 67.4-177.8 44-48.3 102.8-74.8 165.4-74.8 62.6 0 121.3 26.6 165.4 74.8 43.4 47.6 67.4 110.8 67.4 177.8z" fill="" p-id="20119"></path></svg>