<?xml version="1.0" standalone="no"?><!DOCTYPE svg PUBLIC "-//W3C//DTD SVG 1.1//EN" "http://www.w3.org/Graphics/SVG/1.1/DTD/svg11.dtd"><svg t="1550055711995" class="icon" style="" viewBox="0 0 1024 1024" version="1.1" xmlns="http://www.w3.org/2000/svg" p-id="31526" xmlns:xlink="http://www.w3.org/1999/xlink" width="128" height="128"><defs><style type="text/css"></style></defs><path d="M758.722706 194.015785c27.265994 0 49.344848-21.36561 49.344848-47.698349L808.067554 50.918693c0-26.349111-22.078855-47.713698-49.344848-47.713698-27.267017 0-49.346895 21.364587-49.346895 47.713698l0 95.398744C709.377858 172.650175 731.457736 194.015785 758.722706 194.015785z" p-id="31527"></path><path d="M265.275247 194.015785c27.267017 0 49.345871-21.36561 49.345871-47.698349L314.621119 50.918693c0-26.349111-22.078855-47.713698-49.345871-47.713698-27.265994 0-49.343825 21.364587-49.343825 47.713698l0 95.398744C215.932446 172.650175 238.0113 194.015785 265.275247 194.015785z" p-id="31528"></path><path d="M939.642219 98.617042l-82.229816 0 0 47.698349c0 52.667523-44.188408 95.398744-98.688673 95.398744s-98.686626-42.73122-98.686626-95.398744L660.037103 98.617042l-49.344848 0-3.291976 0c0-1.11745-40.900525 0-95.40079 0s-95.39772 0.496304-95.39772 0l-3.294023 0-49.344848 0 0 47.698349c0 52.667523-44.155662 95.398744-98.68765 95.398744-54.499242 0-98.688673-42.73122-98.688673-95.398744L166.586574 98.617042 84.356758 98.617042c-27.265994 0-49.345871 21.366633-49.345871 47.698349l0 826.77922c0 26.333762 22.079878 47.699372 49.345871 47.699372l855.287507 0c27.265994 0 49.344848-21.36561 49.344848-47.699372L988.989113 146.31539C988.987067 119.983675 966.907189 98.617042 939.642219 98.617042zM725.817272 861.794711 298.180681 861.794711c-19.682271 0-35.643802-15.96153-35.643802-35.633568 0-19.684318 15.96153-35.645848 35.643802-35.645848l427.635567 0c19.684318 0 35.645848 15.96153 35.645848 35.645848C761.46312 845.833181 745.50159 861.794711 725.817272 861.794711zM725.817272 677.599595 298.180681 677.599595c-19.682271 0-35.643802-15.96153-35.643802-35.633568 0-19.684318 15.96153-35.645848 35.643802-35.645848l427.635567 0c19.684318 0 35.645848 15.96153 35.645848 35.645848C761.46312 661.638065 745.50159 677.599595 725.817272 677.599595zM725.817272 493.40448 298.180681 493.40448c-19.682271 0-35.643802-15.962553-35.643802-35.634592 0-19.683295 15.96153-35.643802 35.643802-35.643802l427.635567 0c19.684318 0 35.645848 15.960507 35.645848 35.643802C761.46312 477.44295 745.50159 493.40448 725.817272 493.40448z" p-id="31529"></path></svg>