<?xml version="1.0" standalone="no"?><!DOCTYPE svg PUBLIC "-//W3C//DTD SVG 1.1//EN" "http://www.w3.org/Graphics/SVG/1.1/DTD/svg11.dtd"><svg t="1552278116637" class="icon" style="" viewBox="0 0 1024 1024" version="1.1" xmlns="http://www.w3.org/2000/svg" p-id="6515" xmlns:xlink="http://www.w3.org/1999/xlink" width="128" height="128"><defs><style type="text/css"></style></defs><path d="M621.67 686.49a55.21 55.21 0 0 0-17 40.91c0.13 19.7 12.42 32.26 20.14 39.9l92.51 102.64q0.53 0.59 1.09 1.14l0.07 0.07c4.51 4.39 13.89 13.53 30.39 13.53 23.42 0 41.09-17.65 41.09-41v-39c38.78 4.11 68.62 25.32 94.67 66.6 7.82 14.71 19.41 22.16 34.47 22.16 19.41 0 41-16.86 41-41a24.21 24.21 0 0 0-0.16-2.75c-0.21-1.87-0.42-4.74-0.66-8.06-1.61-22.17-5-68.29-30.26-110.27a164.36 164.36 0 0 0-58.74-57.83c-22.75-13.25-49.74-22-80.45-26.15v-31.73c0-11.16-4.9-22.46-13.43-31s-19.83-13.43-31-13.43c-17.09 0-26.72 9.88-30.82 14.1l-0.48 0.51z m31.59 39.92a6.66 6.66 0 0 1 2.15-5q0.74-0.68 1.42-1.43l84.53-92v41.31a24.28 24.28 0 0 0 22.86 24.24c106.36 6.23 135.4 67.14 144.14 127.22-14.88-18.58-31.06-32.95-49-43.56C832 761 800 753.71 764.44 755.61a24.28 24.28 0 0 0-23 24.24v44.28l-81-89.86q-0.47-0.53-1-1c-1.69-1.73-5.17-5.16-6.18-6.85zM538.13 855.62h-52.7c-20.49 0-24.89 4.39-24.89 24.88v54.16c0 20.5 4.39 24.89 24.89 24.89h52.7c20.5 0 24.89-4.39 24.89-24.89v-54.15c-1.46-20.51-5.85-24.89-24.89-24.89zM362.48 855.62h-52.7c-20.49 0-24.89 4.39-24.89 24.88v54.16c0 20.5 4.39 24.89 24.89 24.89h52.7c20.49 0 24.88-4.39 24.88-24.89v-54.15c-1.47-20.51-5.86-24.89-24.88-24.89zM362.48 667.9h-52.7c-20.49 0-24.89 4.39-24.89 24.88v52.7c0 20.49 4.39 24.88 24.89 24.88h52.7c20.49 0 24.88-4.39 24.88-24.88v-54.15c-1.47-19.04-5.86-23.43-24.88-23.43zM485.43 490.78c-20.49 0-24.88 4.39-24.88 24.88v54.16c0 20.5 4.39 24.89 24.88 24.89h52.7c20.49 0 24.88-4.39 24.88-24.89v-54.16c-1.46-20.49-5.85-24.88-24.88-24.88zM538.13 667.9h-52.7c-20.49 0-24.89 4.39-24.89 24.88v52.7c0 20.49 4.39 24.88 24.89 24.88h52.7c20.5 0 24.89-4.39 24.89-24.88v-54.15c-1.46-19.04-5.85-23.43-24.89-23.43zM362.48 490.78h-52.7c-20.49 0-24.89 4.39-24.89 24.88v54.16c0 20.49 4.39 24.88 24.89 24.88h52.7c20.49 0 24.88-4.39 24.88-24.88v-54.16c-1.47-21.95-5.86-24.88-24.88-24.88z" p-id="6516"></path><path d="M914.29 427.93A28.7 28.7 0 1 0 948.68 382l-419-313.65a28.7 28.7 0 0 0-34.37 0L75.53 382a28.7 28.7 0 1 0 34.35 46l40.54-30.3v533.17a28.69 28.69 0 0 0 57.38 0v-576.1l304.65-227.63z" p-id="6517"></path></svg>