<?xml version="1.0" standalone="no"?><!DOCTYPE svg PUBLIC "-//W3C//DTD SVG 1.1//EN" "http://www.w3.org/Graphics/SVG/1.1/DTD/svg11.dtd"><svg t="1552278130108" class="icon" style="" viewBox="0 0 1024 1024" version="1.1" xmlns="http://www.w3.org/2000/svg" p-id="7295" xmlns:xlink="http://www.w3.org/1999/xlink" width="128" height="128"><defs><style type="text/css"></style></defs><path d="M850.7 585.83l-0.48-0.51c-4.11-4.22-13.73-14.1-30.82-14.1-11.16 0-22.46 4.9-31 13.43s-13.4 19.84-13.4 31v31.63c-30.71 4.14-57.7 12.9-80.45 26.15a164.36 164.36 0 0 0-58.74 57.83c-25.3 42-28.65 88.11-30.26 110.27-0.24 3.32-0.45 6.19-0.66 8.06a24.21 24.21 0 0 0-0.16 2.75c0 24.19 21.63 41 41 41 15.06 0 26.65-7.45 34.47-22.16 26.06-41.28 55.89-62.49 94.67-66.6v39c0 23.4 17.66 41 41.09 41 16.5 0 25.88-9.14 30.39-13.53l0.07-0.07q0.56-0.55 1.09-1.14L940 767.3c7.73-7.64 20-20.2 20.14-39.9a55.21 55.21 0 0 0-17-40.91z m54.71 147.42l-1 1-81 89.86v-44.26a24.28 24.28 0 0 0-23-24.24c-35.61-1.9-67.55 5.38-95 21.62-17.91 10.61-34.09 25-49 43.56 8.74-60.08 37.78-121 144.14-127.22a24.28 24.28 0 0 0 22.86-24.24V628l84.53 92q0.68 0.74 1.42 1.43a6.66 6.66 0 0 1 2.15 5c-0.89 1.68-4.37 5.11-6.1 6.82zM538.13 855.62h-52.7c-20.49 0-24.89 4.39-24.89 24.88v54.16c0 20.5 4.39 24.89 24.89 24.89h52.7c20.5 0 24.89-4.39 24.89-24.89v-54.15c-1.46-20.51-5.85-24.89-24.89-24.89zM362.48 855.62h-52.7c-20.49 0-24.89 4.39-24.89 24.88v54.16c0 20.5 4.39 24.89 24.89 24.89h52.7c20.49 0 24.88-4.39 24.88-24.89v-54.15c-1.47-20.51-5.86-24.89-24.88-24.89zM362.48 667.9h-52.7c-20.49 0-24.89 4.39-24.89 24.88v52.7c0 20.49 4.39 24.88 24.89 24.88h52.7c20.49 0 24.88-4.39 24.88-24.88v-54.15c-1.47-19.04-5.86-23.43-24.88-23.43zM485.43 490.78c-20.49 0-24.88 4.39-24.88 24.88v54.16c0 20.5 4.39 24.89 24.88 24.89h52.7c20.49 0 24.88-4.39 24.88-24.89v-54.16c-1.46-20.49-5.85-24.88-24.88-24.88zM538.13 667.9h-52.7c-20.49 0-24.89 4.39-24.89 24.88v52.7c0 20.49 4.39 24.88 24.89 24.88h52.7c20.5 0 24.89-4.39 24.89-24.88v-54.15c-1.46-19.04-5.85-23.43-24.89-23.43zM362.48 490.78h-52.7c-20.49 0-24.89 4.39-24.89 24.88v54.16c0 20.49 4.39 24.88 24.89 24.88h52.7c20.49 0 24.88-4.39 24.88-24.88v-54.16c-1.47-21.95-5.86-24.88-24.88-24.88z" p-id="7296"></path><path d="M914.29 427.93A28.7 28.7 0 1 0 948.68 382l-419-313.65a28.7 28.7 0 0 0-34.37 0L75.53 382a28.7 28.7 0 1 0 34.35 46l40.54-30.3v533.17a28.69 28.69 0 0 0 57.38 0v-576.1l304.65-227.63z" p-id="7297"></path></svg>