<?xml version="1.0" standalone="no"?><!DOCTYPE svg PUBLIC "-//W3C//DTD SVG 1.1//EN" "http://www.w3.org/Graphics/SVG/1.1/DTD/svg11.dtd"><svg class="icon" width="200px" height="200.00px" viewBox="0 0 1024 1024" version="1.1" xmlns="http://www.w3.org/2000/svg"><path fill="#ffffff" d="M504.32 487.68a192 192 0 1 0 0-271.36 192 192 0 0 0 0 271.36z m-45.44 45.44a256 256 0 1 1 362.24 0 256 256 0 0 1-362.24 0zM457.28 521.28a32 32 0 0 1 45.44 45.44l-256 256a32 32 0 0 1-45.44-45.44zM470.72 681.28a32 32 0 0 1-45.44 45.44l-32-32a32 32 0 0 1 45.44-45.44z m-64 96a32 32 0 0 1-45.44 45.44l-64-64a32 32 0 0 1 45.44-45.44z" /></svg>