<?xml version="1.0" standalone="no"?><!DOCTYPE svg PUBLIC "-//W3C//DTD SVG 1.1//EN" "http://www.w3.org/Graphics/SVG/1.1/DTD/svg11.dtd"><svg t="1552279973307" class="icon" style="" viewBox="0 0 1024 1024" version="1.1" xmlns="http://www.w3.org/2000/svg" p-id="15997" xmlns:xlink="http://www.w3.org/1999/xlink" width="128" height="128"><defs><style type="text/css"></style></defs><path d="M860.7 349.9c13.3 1.5 26.1 4.9 39.4 10.3s24.6 13.3 33.9 23.1c9.8 9.8 16.7 22.6 21.6 37.9 4.9 15.3 5.4 33 2 54.1v1c-1.5 5.9-3.9 19.2-8.4 40.3-3.9 21.6-8.9 46.7-14.3 74.8-5.4 28-11.8 57.1-18.7 87.1-6.9 30-13.3 55.6-19.7 76.8-3.4 12.3-8.4 25.1-14.8 38.4-6.4 13.3-14.8 25.1-25.1 35.4-10.3 10.8-22.6 19.7-37.4 26.6-14.3 6.9-31.5 10.3-51.7 10.3H196c-14.3 0-29.5-3-44.8-9.3-15.3-6.4-30-14.8-42.8-26.6s-23.6-25.1-32-41.3c-8.4-16.2-12.3-34.4-12.3-54.1V291.8c0-41.8 11.3-74.8 33.9-98.4s54.7-35.4 96-35.4h507.7c15.3 0 31 3 46.7 8.9 16.2 5.9 31 13.8 43.8 24.1 13.3 10.3 23.6 22.1 32 35.9s12.3 28.5 12.3 44.3c0 6.4-4.9 11.3-11.3 11.3H783c-27.6 0-59.5 0-96.4-0.5s-76.3-0.5-117.6-0.5-80.7 0-116.6-0.5c-35.9-0.5-67.4-0.5-93.5-0.5h-47.7c-17.7 0-32 5.9-41.8 17.2-9.8 11.3-17.7 26.6-23.1 44.8-5.4 20.2-11.8 41.3-18.7 63.5s-13.3 43.3-18.7 62.5c-6.9 22.6-13.8 44.3-20.7 65.4 0 0.5 0 0.5-0.5 1-1.5 5.4-2 9.8-2 12.8 0 11.8 3.9 21.6 11.8 29.5 7.9 7.9 17.7 11.8 29.5 11.8 21.2 0 35.9-13.3 43.3-40.3l52.6-191.9c1.5-4.9 5.9-8.4 11.3-8.4 86.1 0.5 164.8 1 237.1 1l289.4 0.5z" fill="#333333" p-id="15998"></path></svg>