<?xml version="1.0" standalone="no"?><!DOCTYPE svg PUBLIC "-//W3C//DTD SVG 1.1//EN" "http://www.w3.org/Graphics/SVG/1.1/DTD/svg11.dtd"><svg t="1552278217162" class="icon" style="" viewBox="0 0 1025 1024" version="1.1" xmlns="http://www.w3.org/2000/svg" p-id="8633" xmlns:xlink="http://www.w3.org/1999/xlink" width="128.125" height="128"><defs><style type="text/css"></style></defs><path d="M475.307 214.696c77.911 0 181.792 24.316 181.792 234.392 0 17.203 14.224 31.429 31.427 31.429 17.204 0 31.43-14.224 31.43-31.429 0-245.474-132.666-296.588-243.987-296.588s-243.985 51.445-243.985 296.588c0 103.716 47.639 203.955 121.913 260.197l0 4.631c-165.085 23.652-270.289 90.976-270.289 174.509 0 17.204 14.226 31.429 31.432 31.429 17.201 0 31.429-14.223 31.429-31.429 0-43.996 90.647-99.745 242.496-116.448 15.715-1.49 27.79-15.22 27.79-30.933l0-48.139c0-10.584-5.627-20.178-14.226-26.299-64.345-42.017-107.851-129.52-107.851-217.521-0.497-210.572 102.721-234.388 180.632-234.388zM861.549 367.042l-39.537-10.089c-12.569-180.302-163.426-323.054-346.704-323.054-186.754 0-339.098 147.881-347.203 332.485l-23.324 19.846c-7.11 6.12-11.081 14.721-11.081 23.82l0 123.563c0 17.204 14.226 31.43 31.429 31.43s31.43-14.226 31.43-31.43l0-108.839 23.324-19.19c7.114-6.12 11.082-14.721 11.082-23.821 0-157.474 128.031-285.009 285.007-285.009 156.979 0 285.011 128.031 285.011 285.009 0 14.226 9.594 26.797 23.821 30.437l39.036 9.594 0 112.318c0 17.204 14.224 31.427 31.427 31.427 17.206 0 31.43-14.221 31.43-31.427l0-136.633c-1.328-14.723-10.921-27.457-25.147-30.437zM744.6 494.574c-5.622 16.706-57.729 59.218-232.406 59.218-17.203 0-31.429 14.224-31.429 31.429 0 17.203 14.226 31.429 31.429 31.429 265.658 0 291.628-92.631 294.107-111.324l-30.935-3.968-30.766-6.783zM597.879 713.249l0-20.675c0-17.201-14.227-31.427-31.427-31.427-17.206 0-31.43 14.224-31.43 31.427l0 48.134c0 15.715 12.073 29.28 27.786 30.937 16.214 1.982 31.928 3.972 46.649 6.619l0-63.352c-3.471-0.172-7.609-0.667-11.577-1.663zM928.23 805.876l-20.678 0c-0.712 0-1.358 0.322-2.034 0.421-3.167-19.096-10.502-36.637-21.322-51.725 0.518-0.419 1.163-0.614 1.647-1.1l14.604-14.602c8.077-8.077 8.077-21.163 0-29.238-8.079-8.078-21.163-8.078-29.24 0l-14.634 14.604c-0.485 0.484-0.646 1.131-1.1 1.645-15.087-10.823-32.661-18.187-51.723-21.321 0.097-0.712 0.421-1.325 0.421-2.034l0-20.678c0-11.404-9.275-20.677-20.677-20.677-11.407 0-20.678 9.273-20.678 20.677l0 20.678c0 0.711 0.326 1.356 0.422 2.034-19.094 3.134-36.636 10.498-51.759 21.321-0.415-0.515-0.612-1.162-1.098-1.645l-14.604-14.604c-8.077-8.078-21.16-8.078-29.235 0-8.079 8.075-8.079 21.162 0 29.238l14.601 14.602c0.484 0.485 1.129 0.646 1.647 1.1-10.824 15.087-18.19 32.662-21.324 51.755-0.711-0.096-1.323-0.415-2.034-0.415l-20.677 0c-11.402 0-20.677 9.27-20.677 20.674 0 11.406 9.273 20.676 20.677 20.676l20.677 0c0.712 0 1.359-0.32 2.034-0.419 3.167 19.094 10.5 36.67 21.324 51.758-0.518 0.419-1.163 0.612-1.647 1.096l-14.601 14.604c-8.079 8.079-8.079 21.162 0 29.24 8.075 8.077 21.158 8.077 29.235 0l14.604-14.603c0.485-0.485 0.647-1.132 1.098-1.647 15.091 10.822 32.665 18.187 51.759 21.321-0.096 0.711-0.422 1.325-0.422 2.034l0 20.678c0 11.404 9.272 20.676 20.678 20.676 11.402 0 20.677-9.272 20.677-20.676l0-20.678c0-0.711-0.323-1.356-0.421-2.034 19.094-3.166 36.637-10.498 51.723-21.321 0.421 0.515 0.614 1.162 1.1 1.647l14.603 14.603c8.077 8.077 21.163 8.077 29.238 0 8.077-8.077 8.077-21.16 0-29.24l-14.604-14.604c-0.484-0.484-1.131-0.644-1.645-1.096 10.822-15.087 18.187-32.663 21.321-51.757 0.711 0.099 1.356 0.419 2.068 0.419l20.678 0c11.404 0 20.676-9.27 20.676-20.676 0-11.404-9.272-20.708-20.676-20.708zM783.494 909.259c-45.682 0-82.707-37.026-82.707-82.705 0-45.683 37.026-82.707 82.707-82.707 45.683 0 82.705 37.025 82.705 82.707 0 45.682-37.023 82.705-82.705 82.705z" p-id="8634"></path></svg>