<?xml version="1.0" standalone="no"?><!DOCTYPE svg PUBLIC "-//W3C//DTD SVG 1.1//EN" "http://www.w3.org/Graphics/SVG/1.1/DTD/svg11.dtd"><svg t="1552279784233" class="icon" style="" viewBox="0 0 1030 1024" version="1.1" xmlns="http://www.w3.org/2000/svg" p-id="12397" xmlns:xlink="http://www.w3.org/1999/xlink" width="128.75" height="128"><defs><style type="text/css"></style></defs><path d="M1004.8 579.2h-22.4c-9.6 0-19.2 0-28.8 9.6 0-3.2 0-3.2-3.2-6.4-12.8-38.4-25.6-73.6-38.4-112-9.6-25.6-32-41.6-57.6-41.6h-307.2c-25.6 0-51.2 16-57.6 41.6-9.6 25.6-16 51.2-25.6 80-3.2 12.8-9.6 28.8-12.8 41.6 0-3.2-3.2-3.2-3.2-3.2-3.2-6.4-9.6-9.6-16-9.6h-35.2c-9.6 0-16 6.4-19.2 16-3.2 9.6 0 19.2 6.4 25.6 6.4 3.2 9.6 6.4 16 6.4h25.6v249.6c16 3.2 32 0 48-3.2 25.6-6.4 35.2-22.4 35.2-51.2 0-6.4-3.2-12.8-3.2-22.4H896c0 6.4-3.2 12.8-3.2 22.4 0 19.2 3.2 35.2 19.2 44.8 19.2 12.8 41.6 12.8 64 9.6v-249.6h28.8c12.8 0 25.6-12.8 25.6-25.6-3.2-9.6-12.8-19.2-25.6-22.4z m-489.6 9.6c6.4-25.6 16-54.4 22.4-80 6.4-22.4 25.6-35.2 48-35.2h236.8c22.4 0 41.6 12.8 48 35.2 9.6 32 19.2 60.8 25.6 92.8v3.2H512c0-6.4 3.2-9.6 3.2-16z m0 140.8c-22.4 0-38.4-16-38.4-38.4 0-19.2 16-38.4 38.4-38.4s38.4 16 38.4 38.4-16 38.4-38.4 38.4z m368 0c-22.4 0-38.4-16-38.4-38.4 0-19.2 16-38.4 38.4-38.4s38.4 16 38.4 38.4-16 38.4-38.4 38.4zM371.2 531.2c0-25.6 6.4-51.2 16-76.8v-3.2c0-6.4-3.2-9.6-3.2-16 3.2-16 12.8-25.6 28.8-25.6 3.2 0 6.4 0 6.4-3.2 22.4-25.6 51.2-41.6 86.4-51.2 6.4 0 9.6-3.2 16-3.2-9.6-6.4-16-3.2-25.6-3.2-9.6 0-16 0-22.4 9.6 0-3.2 0-3.2-3.2-6.4-9.6-28.8-19.2-60.8-28.8-89.6-6.4-22.4-22.4-38.4-44.8-38.4H144c-19.2 0-38.4 16-44.8 35.2-6.4 12.8-9.6 28.8-16 41.6L64 358.4c-6.4-6.4-9.6-12.8-19.2-12.8H22.4c-6.4 0-12.8 3.2-16 6.4-6.4 6.4-6.4 12.8-3.2 22.4 3.2 9.6 9.6 12.8 19.2 12.8h22.4v204.8c12.8 0 25.6 0 38.4-3.2 16-3.2 25.6-16 28.8-32 0-9.6 0-19.2-3.2-25.6h262.4z m-252.8-166.4c6.4-25.6 12.8-48 19.2-73.6 6.4-19.2 19.2-28.8 38.4-28.8h192c19.2 0 32 9.6 38.4 28.8 6.4 25.6 16 51.2 22.4 76.8v3.2H115.2l3.2-6.4z m-28.8 73.6c0-16 12.8-32 32-32s32 12.8 32 28.8-12.8 32-32 32c-19.2 3.2-32-9.6-32-28.8zM604.8 339.2c9.6 0 12.8-6.4 19.2-12.8 16-38.4 35.2-76.8 54.4-115.2 6.4-9.6 9.6-22.4 16-32 6.4-12.8-3.2-25.6-16-28.8h-28.8c-9.6 0-19.2 3.2-25.6 6.4-3.2 0-6.4 3.2-6.4 6.4-9.6 28.8-12.8 54.4-19.2 83.2-3.2 22.4-9.6 44.8-12.8 67.2 0 6.4 0 9.6 3.2 16s9.6 9.6 16 9.6zM646.4 371.2c-6.4 6.4-6.4 12.8-3.2 19.2 3.2 6.4 9.6 9.6 16 12.8 6.4 0 12.8-3.2 16-6.4 28.8-28.8 54.4-57.6 83.2-86.4l3.2-3.2c9.6-12.8 3.2-28.8-12.8-32-6.4 0-12.8 0-19.2 6.4-25.6 28.8-54.4 57.6-83.2 89.6 0-3.2 0-3.2 0 0zM496 268.8c6.4 19.2 9.6 41.6 16 60.8 3.2 9.6 9.6 16 19.2 16 12.8 0 22.4-12.8 19.2-25.6-9.6-38.4-22.4-80-32-118.4-3.2-6.4-6.4-9.6-12.8-12.8-6.4-3.2-16-3.2-22.4 3.2-3.2 6.4-6.4 12.8-3.2 22.4 3.2 16 9.6 35.2 16 54.4z" fill="#666666" p-id="12398"></path></svg>