<?xml version="1.0" standalone="no"?><!DOCTYPE svg PUBLIC "-//W3C//DTD SVG 1.1//EN" "http://www.w3.org/Graphics/SVG/1.1/DTD/svg11.dtd"><svg t="1552279765318" class="icon" style="" viewBox="0 0 1024 1024" version="1.1" xmlns="http://www.w3.org/2000/svg" p-id="12156" xmlns:xlink="http://www.w3.org/1999/xlink" width="128" height="128"><defs><style type="text/css"></style></defs><path d="M992.256 960 960 960 960 576.192C960 540.032 931.072 512 895.424 512l-126.784 0C732.352 512 704 540.736 704 576.192L704 960l-64 0L640 64.448C640 28.736 611.072 0 575.424 0L448.576 0C412.352 0 384 28.864 384 64.448L384 960 320 960 320 319.744C320 284.48 291.072 256 255.424 256L128.576 256C92.352 256 64 284.544 64 319.744L64 960 31.744 960C14.464 960 0 974.336 0 992 0 1009.152 14.208 1024 31.744 1024l960.448 0C1009.536 1024 1024 1009.664 1024 992 1024 974.848 1009.792 960 992.256 960z" p-id="12157"></path></svg>