<?xml version="1.0" standalone="no"?><!DOCTYPE svg PUBLIC "-//W3C//DTD SVG 1.1//EN" "http://www.w3.org/Graphics/SVG/1.1/DTD/svg11.dtd"><svg t="1552278262007" class="icon" style="" viewBox="0 0 1024 1024" version="1.1" xmlns="http://www.w3.org/2000/svg" p-id="10045" xmlns:xlink="http://www.w3.org/1999/xlink" width="128" height="128"><defs><style type="text/css"></style></defs><path d="M924 64 100 64c-55.2 0-100 44.8-100 100l0 568c0 55.2 44.8 100 100 100l380 0 0 64L224 896c-17.7 0-32 14.3-32 32s14.3 32 32 32l576 0c17.7 0 32-14.3 32-32s-14.3-32-32-32L544 896l0-64 380 0c55.2 0 100-44.8 100-100l0-568C1024 108.7 979.2 64 924 64zM960 732c0 19.9-16.1 36-36 36L100 768c-19.9 0-36-16.1-36-36l0-568c0-19.9 16.1-36 36-36l824 0c19.9 0 36 16.1 36 36L960 732z" p-id="10046"></path><path d="M512 188c-159.5 0-307.8 94.3-380.7 241.9-4.2 8.5-4.6 19 0 27.7 72.9 148 221.2 242.4 380.7 242.4 159.4 0 307.4-94.3 380.7-241.9l0-0.4c4.2-8.1 4.6-18.6 0-27.7C819.4 282.3 671.4 188 512 188zM700.3 580.4c-57.2 36.4-122.3 55.6-188.3 55.6-66.1 0-131.2-19.2-188.4-55.7-53.1-33.8-96.9-80.8-127.3-136.5C226.7 388.2 270.4 341.3 323.5 307.6 380.8 271.2 446 252 512 252c66 0 131.1 19.2 188.3 55.6 53.1 33.7 96.9 80.7 127.6 136.4C797.2 499.7 753.3 546.6 700.3 580.4z" p-id="10047"></path><path d="M512 320c-70.6 0-128 57.5-128 128.1 0 70.5 57.4 127.9 128 127.9 70.6 0 128-57.4 128-127.9C640 377.4 582.6 320 512 320zM512 512c-35.3 0-64-28.7-64-63.9 0-35.4 28.7-64.1 64-64.1 35.3 0 64 28.8 64 64.1C576 483.3 547.3 512 512 512z" p-id="10048"></path></svg>