<?xml version="1.0" standalone="no"?><!DOCTYPE svg PUBLIC "-//W3C//DTD SVG 1.1//EN" "http://www.w3.org/Graphics/SVG/1.1/DTD/svg11.dtd"><svg t="1552278056736" class="icon" style="" viewBox="0 0 1024 1024" version="1.1" xmlns="http://www.w3.org/2000/svg" p-id="5713" xmlns:xlink="http://www.w3.org/1999/xlink" width="128" height="128"><defs><style type="text/css"></style></defs><path d="M921.6 998.4H102.4c-42.496 0-76.8-34.304-76.8-76.8V384h972.8V921.6c0 42.496-34.304 76.8-76.8 76.8zM76.8 435.2V921.6c0 14.336 11.264 25.6 25.6 25.6h819.2c14.336 0 25.6-11.264 25.6-25.6V435.2h-870.4z" p-id="5714"></path><path d="M67.072 415.744l-43.52-27.136 186.88-300.032c4.608-7.168 12.8-11.776 21.504-11.776h566.272c8.704 0 16.896 4.608 22.016 12.288l180.224 292.352-43.52 26.624-173.056-280.064H246.272l-179.2 287.744z" p-id="5715"></path><path d="M486.4 102.4h51.2v307.2h-51.2z" p-id="5716"></path><path d="M640 563.2H409.6c-14.336 0-25.6-11.264-25.6-25.6s11.264-25.6 25.6-25.6h230.4c14.336 0 25.6 11.264 25.6 25.6s-11.264 25.6-25.6 25.6z" p-id="5717"></path></svg>