<?xml version="1.0" standalone="no"?><!DOCTYPE svg PUBLIC "-//W3C//DTD SVG 1.1//EN" "http://www.w3.org/Graphics/SVG/1.1/DTD/svg11.dtd"><svg t="1550054233732" class="icon" style="" viewBox="0 0 1024 1024" version="1.1" xmlns="http://www.w3.org/2000/svg" p-id="23118" xmlns:xlink="http://www.w3.org/1999/xlink" width="200" height="200"><defs><style type="text/css"></style></defs><path d="M896 418.133333h-81.066667c-12.8 0-21.333333-8.533333-29.866666-17.066666s-4.266667-25.6 8.533333-34.133334l55.466667-55.466666c8.533333-8.533333 12.8-21.333333 12.8-29.866667 0-12.8-4.266667-21.333333-12.8-29.866667l-72.533334-72.533333c-17.066667-17.066667-46.933333-17.066667-64 0l-55.466666 55.466667c-8.533333 8.533333-17.066667 8.533333-21.333334 8.533333-8.533333 0-17.066667-4.266667-21.333333-8.533333-4.266667-4.266667-8.533333-12.8-8.533333-21.333334V128c0-25.6-21.333333-42.666667-42.666667-42.666667h-102.4c-25.6 0-42.666667 21.333333-42.666667 42.666667v81.066667c0 21.333333-17.066667 29.866667-29.866666 29.866666-4.266667 0-12.8 0-21.333334-8.533333l-55.466666-55.466667c-17.066667-17.066667-46.933333-17.066667-64 0l-72.533334 72.533334c-8.533333 8.533333-12.8 21.333333-12.8 29.866666 0 12.8 4.266667 21.333333 12.8 29.866667l55.466667 55.466667c8.533333 8.533333 12.8 21.333333 8.533333 34.133333s-17.066667 17.066667-29.866666 17.066667H128c-25.6 0-42.666667 21.333333-42.666667 42.666666v102.4c0 25.6 21.333333 42.666667 42.666667 42.666667h81.066667c12.8 0 21.333333 8.533333 29.866666 17.066667 4.266667 12.8 4.266667 25.6-8.533333 34.133333l-55.466667 55.466667c-8.533333 8.533333-12.8 21.333333-12.8 29.866666 0 12.8 4.266667 21.333333 12.8 29.866667l72.533334 72.533333c17.066667 17.066667 46.933333 17.066667 64 0l55.466666-55.466666c8.533333-8.533333 17.066667-8.533333 21.333334-8.533334 17.066667 0 29.866667 12.8 29.866666 29.866667V896c0 25.6 21.333333 42.666667 42.666667 42.666667h102.4c25.6 0 42.666667-21.333333 42.666667-42.666667v-81.066667c0-21.333333 17.066667-29.866667 29.866666-29.866666 4.266667 0 12.8 0 21.333334 8.533333l55.466666 55.466667c17.066667 17.066667 46.933333 17.066667 64 0l72.533334-72.533334c8.533333-8.533333 12.8-21.333333 12.8-29.866666 0-12.8-4.266667-21.333333-12.8-29.866667l-55.466667-55.466667c-8.533333-8.533333-12.8-21.333333-8.533333-34.133333 4.266667-12.8 17.066667-17.066667 29.866666-17.066667H896c25.6 0 42.666667-21.333333 42.666667-42.666666v-102.4c0-29.866667-21.333333-46.933333-42.666667-46.933334zM622.933333 512c0 59.733333-51.2 110.933333-110.933333 110.933333s-110.933333-51.2-110.933333-110.933333 51.2-110.933333 110.933333-110.933333 110.933333 51.2 110.933333 110.933333z" fill="" p-id="23119"></path></svg>