<?xml version="1.0" standalone="no"?><!DOCTYPE svg PUBLIC "-//W3C//DTD SVG 1.1//EN" "http://www.w3.org/Graphics/SVG/1.1/DTD/svg11.dtd"><svg t="1552279499279" class="icon" style="" viewBox="0 0 1024 1024" version="1.1" xmlns="http://www.w3.org/2000/svg" p-id="7289" xmlns:xlink="http://www.w3.org/1999/xlink" width="128" height="128"><defs><style type="text/css"></style></defs><path d="M815.424 1024 208.576 1024C93.546667 1024 0 930.410667 0 815.445333L0 208.576C0 93.568 93.546667 0 208.576 0l606.848 0C930.410667 0 1024 93.568 1024 208.576l0 606.848C1024 930.410667 930.410667 1024 815.424 1024zM208.576 113.749333c-52.288 0-94.826667 42.602667-94.826667 94.826667l0 606.848c0 52.309333 42.538667 94.72 94.826667 94.72l606.848 0c52.288 0 94.741333-42.410667 94.741333-94.72L910.165333 208.576c0-52.224-42.453333-94.826667-94.741333-94.826667L208.576 113.749333z" p-id="7290"></path><path d="M595.157333 278.613333 595.157333 208.853333c1.749333-26.837333 16.085333-42.005333 42.922667-45.610667 28.586667 1.792 43.818667 16.106667 45.610667 42.922667l0 72.448 104.618667 0c23.232 1.792 35.776 16.085333 37.568 42.922667-1.792 26.837333-15.210667 41.173333-40.234667 42.922667l-101.952 0 0 351.445333c0 53.653333-25.941333 80.469333-77.781333 80.469333-69.76 1.749333-115.370667-1.813333-136.832-10.730667-23.253333-8.981333-32.192-26.837333-26.837333-53.674667 3.562667-25.024 24.149333-33.941333 61.717333-26.816 25.024 5.354667 47.36 8.042667 67.072 8.042667 17.856 1.792 25.898667-6.250667 24.149333-24.149333L595.178667 444.928c-69.76 93.013333-174.378667 177.984-313.877333 254.869333-39.36 16.106667-65.322667 10.730667-77.802667-16.106667-8.96-26.816-1.792-47.36 21.461333-61.696 146.645333-69.76 255.744-155.605333 327.296-257.557333L235.669333 364.437333c-23.274667-1.770667-34.88-16.085333-34.88-42.922667 1.770667-26.816 14.293333-41.109333 37.546667-42.922667L595.157333 278.592z" p-id="7291"></path></svg>