<?xml version="1.0" standalone="no"?><!DOCTYPE svg PUBLIC "-//W3C//DTD SVG 1.1//EN" "http://www.w3.org/Graphics/SVG/1.1/DTD/svg11.dtd"><svg t="1552279652154" class="icon" style="" viewBox="0 0 1024 1024" version="1.1" xmlns="http://www.w3.org/2000/svg" p-id="9728" xmlns:xlink="http://www.w3.org/1999/xlink" width="128" height="128"><defs><style type="text/css"></style></defs><path d="M488.727273 535.272727v-46.545454h-69.818182a23.272727 23.272727 0 0 1 0-46.545455h23.272727v-23.272727a23.272727 23.272727 0 0 1 46.545455 0v23.272727h46.545454v-23.272727a23.272727 23.272727 0 0 1 46.545455 0v23.272727h23.272727a23.272727 23.272727 0 0 1 0 46.545455h-69.818182v46.545454h69.818182a23.272727 23.272727 0 0 1 0 46.545455h-69.818182v69.818182a23.272727 23.272727 0 0 1-46.545454 0v-69.818182h-69.818182a23.272727 23.272727 0 0 1 0-46.545455h69.818182z m372.363636 139.636364a46.545455 46.545455 0 1 1 0-93.090909v-93.090909a46.545455 46.545455 0 1 1 0-93.090909 69.818182 69.818182 0 0 0-69.818182-69.818182H232.727273a69.818182 69.818182 0 0 0-69.818182 69.818182 46.545455 46.545455 0 1 1 0 93.090909v93.090909a46.545455 46.545455 0 1 1 0 93.090909 69.818182 69.818182 0 0 0 69.818182 69.818182h558.545454a69.818182 69.818182 0 0 0 69.818182-69.818182zM232.727273 0h558.545454c128.535273 0 232.727273 104.192 232.727273 232.727273v558.545454c0 128.535273-104.192 232.727273-232.727273 232.727273H232.727273C104.192 1024 0 919.808 0 791.272727V232.727273C0 104.192 104.192 0 232.727273 0z m482.141091 219.578182a46.545455 46.545455 0 0 0-52.898909-24.343273L325.818182 279.272727h418.909091l-29.858909-59.694545z" p-id="9729"></path></svg>