<?xml version="1.0" standalone="no"?><!DOCTYPE svg PUBLIC "-//W3C//DTD SVG 1.1//EN" "http://www.w3.org/Graphics/SVG/1.1/DTD/svg11.dtd"><svg t="1552277753240" class="icon" style="" viewBox="0 0 1024 1024" version="1.1" xmlns="http://www.w3.org/2000/svg" p-id="4960" xmlns:xlink="http://www.w3.org/1999/xlink" width="128" height="128"><defs><style type="text/css"></style></defs><path d="M838.17472 394.24c6.45632 19.58912 10.78272 32.8192 10.78272 32.8192s-0.66048 11.68896-10.37824 11.68896c-14.12096 0-312.08448 0-312.08448 0l-41.71264 0c0 0-297.96352 0-312.0896 0-9.71264 0-10.37824-11.68896-10.37824-11.68896S223.232 240.99328 229.85216 227.09248c6.62016-13.90592 23.61856-11.69408 23.61856-11.69408l241.89952 0 20.52608 0L673.28 215.3984 673.28 153.61024l-160.9216 0-13.44512 0L246.40512 153.61024c0 0-45.02528-4.4288-60.91776 25.59488-15.89248 30.02368-124.48256 308.99712-124.48256 308.99712l0 404.33664c0 0 15.232 44.36992 74.82368 44.36992 59.5968 0 72.17152-44.36992 72.17152-44.36992l0-62.23872 293.77536 0 7.71584 0 293.77536 0 0 62.23872c0 0 12.57984 44.36992 72.17664 44.36992s74.81856-44.36992 74.81856-44.36992L950.26176 488.20224c0 0-16.10752-41.37984-36.8128-93.96224L838.17472 394.24zM240.11776 691.9168c-41.87136 0-75.81696-33.93536-75.81696-75.81696s33.9456-75.82208 75.81696-75.82208 75.81696 33.94048 75.81696 75.82208S281.98912 691.9168 240.11776 691.9168zM771.15904 691.9168c-41.87648 0-75.82208-33.93536-75.82208-75.81696s33.9456-75.82208 75.82208-75.82208c41.87136 0 75.81184 33.94048 75.81184 75.82208S813.0304 691.9168 771.15904 691.9168z" p-id="4961"></path><path d="M795.128 365.922c-4.23-4.23-6.675-10.205-6.27-16.725 1.07-16.775-5.025-33.075-16.69-44.745-11.86-11.86-27.73-17.81-44.65-16.725-12.3 0.77-22.61-8.52-23.03-20.835-0.43-12.295 9.17-22.855 21.47-23.625 29.215-1.85 57.69 8.815 78.135 29.26 20.41 20.41 31.045 48.92 29.21 78.21-0.77 12.3-11.34 21.89-23.62 21.47C803.938 372.032 798.848 369.647 795.128 365.922L795.128 365.922 795.128 365.922 795.128 365.922zM869.538 360.422c-3.955-3.955-6.37-9.49-6.31-15.6 0.405-35.555-13.045-68.79-37.845-93.585-24.86-24.86-58.075-38.33-93.555-37.94-12.315 0.155-22.095-9.73-21.9-22.025 0.2-12.295 10.345-22.375 22.64-22.515 47.32-0.505 91.63 17.445 124.74 50.55 33.065 33.065 50.985 77.38 50.46 124.805-0.14 12.3-10.235 22.43-22.53 22.66C879.093 366.832 873.533 364.412 869.538 360.422L869.538 360.422 869.538 360.422 869.538 360.422zM943.778 354.942c-3.865-3.865-6.25-9.205-6.315-15.19-0.395-53.815-21.285-104.155-58.865-141.735-37.655-37.65-87.975-58.59-141.72-58.935-12.265-0.09-21.9-10.115-21.48-22.445 0.42-12.295 10.74-22.2 23.02-22.135 65.275 0.44 126.405 25.83 172.12 71.545 45.625 45.62 71.015 106.755 71.5 172.105 0.085 12.3-9.825 22.62-22.105 23.055C953.588 361.442 947.848 359.012 943.778 354.942L943.778 354.942 943.778 354.942 943.778 354.942zM710.823 328.267c-10.655 10.655-10.895 27.68-0.52 38.05 10.355 10.355 27.395 10.13 38.05-0.525 10.65-10.65 10.875-27.69 0.52-38.05C738.503 317.402 721.478 317.612 710.823 328.267L710.823 328.267 710.823 328.267z" p-id="4962"></path></svg>