<?xml version="1.0" standalone="no"?><!DOCTYPE svg PUBLIC "-//W3C//DTD SVG 1.1//EN" "http://www.w3.org/Graphics/SVG/1.1/DTD/svg11.dtd"><svg t="1558171932142" class="icon" style="" viewBox="0 0 1024 1024" version="1.1" xmlns="http://www.w3.org/2000/svg" p-id="2898" xmlns:xlink="http://www.w3.org/1999/xlink" width="16" height="16"><defs><style type="text/css"></style></defs><path d="M101.646028 562.625004l366.244358 192.246489c33.463136 16.906042 47.923476 16.906042 84.172051 0l378.974287-205.006094c18.700921-9.29162 25.511024-30.017664 25.511024-53.640688-62.026682 32.18912-446.586175 232.279251-446.586175 232.279251S112.487957 519.665587 63.359027 496.223688C63.359027 519.326872 81.487919 551.250956 101.646028 562.625004zM88.945775 382.329708l378.944612 181.947935c33.463136 16.861016 47.923476 16.861016 84.172051 0l378.973264-181.947935c27.889187-13.920034 28.805046-72.944336 0-89.907683L552.083927 78.784344c-29.727045-18.783809-50.709939-17.901719-84.172051 0L88.945775 292.496727C60.060911 312.347844 59.144028 365.446179 88.945775 382.329708zM127.166261 320.187393l347.975273-205.229175c27.975145-15.168468 45.51666-15.916505 70.369697 0l334.487074 192.46957c24.081465 14.374382 36.075637 39.243793 12.759605 51.039443L545.492812 526.34266c-30.30419 14.286378-42.394552 14.286378-70.370721 0L127.166261 358.467231C102.250802 344.161411 103.016235 337.009524 127.166261 320.187393zM63.359027 686.813444c0 23.072485 5.369288 43.00035 25.527396 54.450123l379.004987 204.246801c33.463136 16.882506 47.923476 16.882506 84.172051 0l378.974287-204.246801c18.707061-9.336646 25.511024-30.879288 25.511024-54.450123-76.010161 39.808658-446.586175 233.087663-446.586175 233.087663S165.852352 742.469022 63.359027 686.813444z" p-id="2899" fill="#ffffff"></path></svg>